<?xml version="1.0" standalone="no"?>
<!DOCTYPE svg PUBLIC "-//W3C//DTD SVG 20010904//EN"
 "http://www.w3.org/TR/2001/REC-SVG-20010904/DTD/svg10.dtd">
<svg version="1.0" xmlns="http://www.w3.org/2000/svg"
 width="260.000000pt" height="260.000000pt" viewBox="0 0 260.000000 260.000000"
 preserveAspectRatio="xMidYMid meet">
<metadata>
Created by potrace 1.14, written by Peter Selinger 2001-2017
</metadata>
<g transform="translate(0.000000,260.000000) scale(0.100000,-0.100000)"
fill="#000000" stroke="none">
<path d="M1290 2386 c0 -9 5 -16 10 -16 6 0 10 4 10 9 0 6 -4 13 -10 16 -5 3
-10 -1 -10 -9z"/>
<path d="M1263 2344 c-9 -24 3 -39 35 -40 31 -1 46 14 36 39 -6 17 -64 17 -71
1z"/>
<path d="M1290 2274 c0 -8 5 -12 10 -9 6 3 10 10 10 16 0 5 -4 9 -10 9 -5 0
-10 -7 -10 -16z"/>
<path d="M1201 2237 c-6 -8 -8 -17 -4 -21 4 -3 -3 -13 -15 -22 -22 -15 -20
-44 3 -44 8 0 15 -12 17 -27 3 -27 26 -39 39 -20 4 6 13 6 20 1 19 -12 69 -13
69 -3 0 5 7 9 15 9 8 0 15 -4 15 -8 0 -5 7 -9 15 -9 15 0 28 24 20 37 -3 5 4
14 15 20 25 13 26 40 1 47 -13 3 -17 11 -14 24 6 23 -21 36 -41 20 -10 -8 -16
-9 -21 -1 -8 13 -58 13 -72 -1 -8 -8 -13 -8 -17 0 -10 15 -31 14 -45 -2z"/>
<path d="M1290 2070 c0 -5 5 -10 10 -10 6 0 10 5 10 10 0 6 -4 10 -10 10 -5 0
-10 -4 -10 -10z"/>
<path d="M1264 2025 c-9 -23 9 -37 42 -33 21 2 29 8 29 23 0 26 -62 35 -71 10z"/>
<path d="M1290 1960 c0 -5 5 -10 10 -10 6 0 10 5 10 10 0 6 -4 10 -10 10 -5 0
-10 -4 -10 -10z"/>
<path d="M1023 1927 c-4 -6 -6 -20 -5 -29 2 -10 -3 -18 -11 -18 -17 0 -26 -19
-20 -37 3 -7 10 -13 18 -13 7 0 13 -11 13 -25 0 -14 -6 -25 -13 -25 -8 0 -16
-6 -19 -12 -5 -10 -7 -10 -12 0 -13 28 -50 11 -45 -21 1 -5 -8 -16 -20 -26
-23 -19 -19 -41 7 -41 10 0 14 -8 12 -21 -4 -28 28 -51 42 -30 6 12 12 12 23
3 7 -7 17 -9 20 -6 3 3 5 -8 5 -25 -1 -18 -6 -31 -13 -31 -7 0 -15 -6 -17 -12
-7 -19 2 -38 18 -38 8 0 14 -6 13 -12 -5 -38 22 -53 49 -26 9 9 12 9 12 -1 0
-7 9 -11 23 -9 15 2 21 9 20 23 -1 13 7 24 23 32 13 6 24 7 24 2 0 -5 7 -9 15
-9 9 0 15 -9 15 -25 0 -18 5 -25 19 -25 11 0 23 4 26 10 4 6 16 4 31 -6 22
-15 26 -15 48 -1 16 11 26 13 34 5 14 -14 42 -3 42 18 0 9 7 22 16 29 23 17
64 -3 61 -30 -1 -14 5 -21 21 -23 13 -2 22 2 22 9 0 10 3 10 12 1 22 -22 48
-14 48 13 0 15 6 25 14 25 16 0 25 19 19 38 -3 6 -10 12 -18 12 -20 0 -15 45
8 59 16 10 21 10 28 -1 13 -20 45 4 41 31 -2 13 2 21 11 21 24 0 28 28 6 43
-11 8 -19 18 -18 23 4 23 -3 34 -20 34 -11 0 -21 -5 -23 -11 -7 -20 -47 12
-45 35 1 12 9 27 19 34 19 14 14 42 -7 42 -8 0 -15 12 -17 28 -3 26 -26 38
-39 19 -4 -6 -13 -6 -20 -1 -8 5 -20 9 -26 10 -12 2 -14 -2 -17 -33 -1 -7 -10
-19 -21 -27 -17 -12 -22 -12 -42 1 -13 8 -21 19 -18 23 8 13 -5 37 -20 37 -8
0 -15 -4 -15 -9 0 -4 -7 -8 -15 -8 -8 0 -15 4 -15 9 0 10 -50 9 -69 -3 -7 -5
-16 -5 -20 1 -13 19 -36 7 -39 -19 -2 -16 -9 -28 -18 -28 -8 0 -14 -5 -14 -10
0 -6 -11 -3 -25 6 -14 9 -23 20 -20 24 8 13 -5 38 -18 36 -7 -1 -18 -5 -26
-10 -7 -5 -16 -5 -20 0 -10 14 -29 15 -38 1z"/>
<path d="M1290 1440 c0 -5 5 -10 10 -10 6 0 10 5 10 10 0 6 -4 10 -10 10 -5 0
-10 -4 -10 -10z"/>
<path d="M1275 1406 c-27 -19 -13 -46 25 -46 38 0 52 27 25 46 -10 8 -22 14
-25 14 -3 0 -15 -6 -25 -14z"/>
<path d="M1290 1335 c0 -8 5 -15 10 -15 6 0 10 7 10 15 0 8 -4 15 -10 15 -5 0
-10 -7 -10 -15z"/>
<path d="M1207 1303 c-4 -3 -7 -17 -7 -30 0 -13 -5 -22 -12 -20 -8 1 -13 -8
-13 -23 0 -15 5 -24 13 -22 7 1 12 -8 12 -23 0 -29 28 -45 41 -24 6 11 11 11
21 1 14 -14 68 -16 68 -2 0 6 7 10 15 10 8 0 15 -5 15 -11 0 -6 8 -9 18 -7 10
2 17 13 17 26 0 12 4 21 8 19 5 -1 13 6 18 16 10 18 0 48 -17 49 -5 1 -8 9 -6
20 4 22 -23 34 -42 19 -10 -8 -16 -9 -21 -1 -9 14 -58 13 -74 -2 -11 -10 -14
-10 -18 0 -5 13 -25 16 -36 5z"/>
<path d="M1290 1125 c0 -8 5 -15 10 -15 6 0 10 7 10 15 0 8 -4 15 -10 15 -5 0
-10 -7 -10 -15z"/>
<path d="M1263 1084 c-6 -15 19 -44 37 -44 18 0 40 27 34 43 -8 23 -62 23 -71
1z"/>
<path d="M1290 1020 c0 -5 5 -10 10 -10 6 0 10 5 10 10 0 6 -4 10 -10 10 -5 0
-10 -4 -10 -10z"/>
<path d="M1273 985 c-14 -10 -24 -12 -28 -5 -3 5 -15 10 -26 10 -22 0 -27 -38
-7 -58 27 -27 54 -12 49 26 -1 6 5 12 13 12 8 0 17 6 20 13 5 10 7 10 12 0 3
-7 12 -13 20 -13 8 0 13 -9 11 -22 -1 -15 4 -23 16 -26 23 -5 47 15 47 40 0
22 -25 34 -43 20 -8 -7 -18 -6 -31 4 -25 17 -27 17 -53 -1z"/>
<path d="M476 981 c-4 -5 -3 -16 0 -25 4 -10 1 -16 -9 -16 -9 0 -18 -4 -21 -9
-9 -14 4 -41 19 -41 7 0 12 -11 11 -25 0 -14 -6 -25 -13 -25 -6 0 -13 -5 -15
-11 -3 -8 -10 -8 -25 2 -24 14 -36 9 -38 -19 0 -9 -4 -17 -9 -17 -26 0 -27
-58 -1 -67 5 -2 10 -11 10 -20 2 -28 14 -33 38 -19 15 10 22 10 25 2 2 -6 10
-11 17 -11 7 0 12 -10 11 -25 0 -14 -6 -25 -12 -25 -14 0 -26 -28 -18 -41 3
-5 12 -9 21 -9 9 0 13 -6 9 -15 -8 -21 14 -65 32 -65 8 0 12 -6 9 -13 -11 -29
28 -57 45 -33 4 6 12 5 21 -2 7 -7 17 -9 20 -5 4 3 7 -8 7 -25 0 -21 -5 -32
-14 -32 -24 0 -27 -29 -4 -44 11 -8 17 -19 14 -24 -3 -5 1 -16 10 -23 12 -10
20 -10 34 -2 12 8 21 8 28 1 16 -16 45 -1 40 20 -7 24 30 41 57 27 12 -6 19
-18 17 -28 -4 -21 23 -33 41 -18 10 7 17 7 25 -1 15 -15 42 -3 42 19 0 10 10
24 22 32 l22 14 -21 17 c-22 18 -35 65 -18 65 6 0 16 4 24 9 7 5 16 5 20 -1
16 -23 55 6 44 34 -3 7 1 13 10 13 24 0 28 28 6 43 -11 8 -19 18 -18 23 6 34
-24 47 -49 22 -9 -9 -12 -9 -12 0 0 7 -7 12 -15 12 -10 0 -15 10 -15 30 0 19
5 29 13 28 7 -2 12 7 12 22 0 15 -6 25 -15 25 -9 0 -14 10 -15 30 0 21 -7 33
-23 40 -12 5 -20 16 -17 22 12 33 -35 62 -49 31 -5 -10 -7 -10 -12 0 -3 6 -11
12 -19 12 -7 0 -12 11 -12 25 0 14 5 25 12 25 7 0 15 6 17 13 7 18 -2 37 -18
37 -8 0 -13 9 -11 23 2 20 -2 22 -53 22 -51 0 -55 -2 -53 -22 2 -14 -3 -23
-11 -23 -8 0 -17 -6 -20 -12 -5 -10 -7 -10 -12 0 -3 6 -12 12 -20 12 -8 0 -14
6 -13 13 5 37 -22 52 -49 25 -9 -9 -12 -9 -12 0 0 14 -36 16 -44 3z"/>
<path d="M1019 978 c-1 -7 -1 -19 0 -25 1 -7 -5 -13 -12 -13 -17 0 -26 -19
-20 -37 3 -7 10 -13 17 -13 8 0 13 -13 14 -31 0 -17 -2 -28 -5 -25 -3 3 -13 1
-20 -6 -11 -9 -17 -9 -23 3 -13 20 -46 -2 -43 -30 2 -13 -3 -21 -12 -21 -8 0
-15 -4 -15 -10 0 -13 17 -13 25 0 4 6 13 5 25 -2 21 -13 52 4 44 25 -2 7 6 18
18 26 16 10 23 10 26 2 2 -6 10 -11 18 -11 8 0 14 -6 13 -12 -3 -28 2 -38 20
-38 11 0 22 6 25 13 5 10 7 10 12 0 3 -7 14 -13 25 -13 18 0 23 10 20 38 -1 6
5 12 13 12 8 0 16 6 19 13 6 19 -3 37 -20 37 -10 0 -13 6 -9 16 8 21 -19 64
-39 64 -9 0 -14 8 -12 22 1 17 -4 24 -20 26 -14 2 -23 -2 -23 -9 0 -10 -3 -10
-12 -1 -16 16 -48 15 -49 0z"/>
<path d="M1475 980 c-3 -5 -3 -14 0 -22 6 -15 -42 -41 -51 -27 -7 12 -24 11
-24 -1 0 -5 6 -10 13 -10 8 0 14 -12 14 -30 0 -17 -6 -30 -13 -30 -6 0 -14 -6
-16 -12 -7 -19 2 -38 18 -38 8 0 14 -6 13 -12 -3 -28 2 -38 20 -38 11 0 22 6
25 13 5 10 7 10 12 0 3 -7 14 -13 25 -13 18 0 23 10 20 38 -1 6 3 12 9 12 18
0 41 28 43 52 0 13 9 29 19 36 19 14 14 42 -9 42 -7 0 -13 6 -12 13 4 30 -3
35 -51 35 -28 0 -52 -4 -55 -8z"/>
<path d="M1835 980 c-3 -4 -2 -15 1 -24 4 -10 1 -16 -9 -16 -17 0 -26 -18 -20
-37 3 -7 10 -13 18 -13 7 0 13 -11 13 -25 0 -14 -6 -25 -13 -25 -8 0 -15 -5
-17 -11 -3 -8 -10 -8 -25 2 -24 14 -36 9 -38 -19 0 -9 -5 -18 -9 -19 -17 -3
-44 -55 -39 -74 4 -13 1 -19 -8 -17 -9 2 -14 -6 -14 -22 0 -14 5 -24 12 -23 7
2 11 -9 11 -27 -1 -18 -6 -30 -15 -30 -7 0 -13 -5 -13 -12 0 -9 -3 -9 -12 0
-27 27 -54 12 -49 -25 1 -7 -5 -13 -12 -13 -17 0 -26 -19 -20 -37 3 -7 11 -13
19 -13 8 0 14 -6 13 -12 -4 -32 2 -39 29 -37 54 4 61 1 60 -31 -1 -17 -7 -30
-13 -30 -22 0 -25 -29 -4 -43 11 -8 19 -18 18 -23 -4 -23 3 -34 20 -34 11 0
23 5 26 10 5 8 11 7 21 -1 21 -17 47 -3 39 21 -4 14 -2 20 8 20 9 0 17 5 19
11 6 18 54 -14 50 -34 -4 -21 23 -33 41 -18 10 7 17 7 25 -1 16 -16 45 -1 39
21 -3 13 1 21 14 24 24 6 25 33 1 46 -20 11 -23 58 -3 53 6 -1 11 2 11 8 0 5
7 10 15 10 8 0 15 -4 15 -9 0 -23 35 -2 38 22 2 15 9 27 16 27 17 0 37 45 30
65 -4 9 0 15 9 15 9 0 18 4 21 9 9 14 -4 41 -19 41 -7 0 -12 11 -12 25 0 14 5
25 12 25 8 0 16 6 19 13 5 10 7 10 12 0 3 -7 14 -13 25 -13 10 0 20 6 21 13 0
6 2 17 2 22 1 6 5 11 10 12 16 3 27 32 18 49 -5 9 -13 14 -17 12 -5 -1 -9 7
-10 19 -2 33 -13 39 -38 24 -15 -10 -22 -10 -25 -2 -2 6 -9 11 -15 11 -7 0
-13 11 -13 25 -1 14 4 25 11 25 7 0 15 6 17 13 7 18 -2 37 -18 37 -8 0 -13 9
-11 23 2 20 -2 22 -53 22 -51 0 -55 -2 -53 -22 2 -14 -3 -23 -11 -23 -8 0 -17
-6 -20 -12 -5 -10 -7 -10 -12 0 -3 6 -12 12 -20 12 -8 0 -13 9 -11 23 2 20 -2
22 -50 24 -29 1 -55 -2 -58 -7z"/>
<path d="M1170 930 c0 -5 7 -10 15 -10 8 0 15 5 15 10 0 6 -7 10 -15 10 -8 0
-15 -4 -15 -10z"/>
<path d="M1587 833 c-12 -11 -8 -23 8 -23 9 0 15 -6 14 -12 -3 -27 2 -38 17
-38 37 0 61 55 31 74 -14 8 -20 8 -27 -3 -6 -12 -12 -12 -23 -3 -7 7 -17 9
-20 5z"/>
<path d="M1676 783 c-11 -11 -6 -23 9 -23 8 0 15 4 15 9 0 13 -16 22 -24 14z"/>
<path d="M206 511 c-4 -5 -4 -16 0 -24 3 -9 -3 -16 -15 -20 -26 -6 -27 -33 -3
-46 20 -11 23 -58 3 -53 -6 1 -11 -2 -11 -8 0 -5 -7 -10 -15 -10 -8 0 -15 4
-15 8 0 5 -7 9 -15 9 -14 0 -16 -4 -19 -34 -1 -7 -10 -19 -21 -27 -17 -13 -18
-15 -3 -16 9 0 19 6 22 13 5 10 7 10 12 0 3 -7 14 -13 25 -13 18 0 23 10 20
38 -1 6 5 12 13 12 8 0 17 6 20 13 5 10 7 10 12 0 3 -7 12 -13 20 -13 8 0 14
-6 13 -12 -3 -28 2 -38 20 -38 11 0 22 6 25 13 5 10 7 10 12 0 3 -7 14 -13 25
-13 18 0 23 10 20 38 -1 6 5 12 12 12 17 0 26 19 20 38 -3 6 -10 12 -17 12 -7
0 -13 13 -13 30 0 31 7 35 59 31 33 -3 41 11 26 44 -14 32 -54 32 -51 0 3 -27
-38 -47 -61 -30 -9 7 -16 20 -16 29 0 22 -26 32 -44 17 -10 -8 -16 -9 -21 -1
-8 12 -32 13 -39 1z"/>
<path d="M445 510 c-3 -5 1 -10 9 -10 9 0 16 5 16 10 0 6 -4 10 -9 10 -6 0
-13 -4 -16 -10z"/>
<path d="M2125 510 c3 -5 13 -10 21 -10 8 0 12 5 9 10 -3 6 -13 10 -21 10 -8
0 -12 -4 -9 -10z"/>
<path d="M2162 496 c-20 -44 0 -65 37 -41 10 5 16 4 19 -3 2 -7 8 -10 13 -6
14 8 11 24 -6 24 -9 0 -14 8 -12 22 3 34 -36 37 -51 4z"/>
<path d="M2289 508 c-1 -7 -1 -19 0 -25 1 -7 -4 -13 -12 -13 -17 0 -38 -45
-31 -65 4 -9 0 -15 -9 -15 -9 0 -18 -4 -21 -9 -9 -14 5 -41 21 -41 7 0 13 -6
12 -12 -3 -28 2 -38 20 -38 11 0 22 6 25 13 5 10 7 10 12 0 3 -7 14 -13 25
-13 18 0 23 10 20 38 -1 6 5 12 13 12 8 0 17 6 20 13 5 10 7 10 12 0 3 -7 12
-13 20 -13 8 0 14 -6 13 -12 -3 -28 2 -38 20 -38 11 0 22 6 25 13 5 10 7 10
12 0 3 -7 13 -13 22 -13 15 1 14 3 -3 16 -11 8 -20 20 -21 27 -3 30 -5 34 -19
34 -8 0 -15 -4 -15 -9 0 -4 -7 -8 -15 -8 -8 0 -15 5 -15 10 0 6 -5 9 -11 8 -6
-2 -12 9 -14 24 -3 19 2 27 16 31 25 7 25 37 -1 44 -13 3 -19 13 -17 27 1 15
-4 22 -20 24 -14 2 -23 -2 -23 -9 0 -10 -3 -10 -12 -1 -16 16 -48 15 -49 0z"/>
</g>
</svg>
